<svg xmlns="http://www.w3.org/2000/svg" version="1.1" xmlns:xlink="http://www.w3.org/1999/xlink" xmlns:svgjs="http://svgjs.com/svgjs" width="1500" height="700" preserveAspectRatio="none" viewBox="0 0 1500 700"><g mask="url(&quot;#SvgjsMask1043&quot;)" fill="none"><rect width="1500" height="700" x="0" y="0" fill="rgba(218, 230, 255, 1)"></rect><path d="M711.786,402.065C765.651,404.02,815.212,372.62,841.981,325.837C868.571,279.368,868.473,222.024,841.151,175.981C814.373,130.855,764.258,106.771,711.786,106.435C658.675,106.095,604.948,127.676,579.52,174.305C554.939,219.38,571.206,272.549,596.989,316.947C622.629,361.099,660.763,400.214,711.786,402.065" fill="rgba(203, 206, 254, 1)" class="triangle-float3"></path><path d="M1479.263,618.504C1516.343,618.517,1543.884,587.63,1561.253,554.869C1577.373,524.463,1579.968,489.093,1564.052,458.579C1546.804,425.51,1516.451,400.53,1479.263,397.677C1436.549,394.4,1388.283,405.584,1368.484,443.574C1349.508,479.986,1375.403,520.124,1397.371,554.813C1417.201,586.127,1442.198,618.491,1479.263,618.504" fill="rgba(203, 206, 254, 1)" class="triangle-float2"></path><path d="M1267.683,120.898C1292.995,119.201,1314.249,104.059,1327.282,82.294C1340.744,59.812,1346.833,32.429,1334.505,9.306C1321.518,-15.054,1295.277,-30.304,1267.683,-29.495C1241.313,-28.722,1221.268,-9.358,1207.32,13.034C1192.264,37.206,1178.514,66.488,1192.421,91.338C1206.529,116.547,1238.86,122.831,1267.683,120.898" fill="rgba(203, 206, 254, 1)" class="triangle-float1"></path><path d="M475.511,878.935C549.593,875.949,611.41,826.29,646.109,760.769C678.544,699.522,676.078,626.499,640.784,566.854C606.156,508.335,543.495,473.793,475.511,472.468C405.005,471.094,337.009,500.988,298.687,560.185C256.704,625.038,241.826,707.998,279.303,775.555C317.739,844.841,396.342,882.126,475.511,878.935" fill="rgba(203, 206, 254, 1)" class="triangle-float1"></path><path d="M1188.59,561.53C1254.244,560.233,1311.496,522.343,1345.845,466.376C1382.067,407.358,1396.623,335.315,1365.344,273.535C1331.069,205.838,1264.379,152.084,1188.59,155.777C1117.103,159.26,1072.921,226.21,1039.347,289.419C1008.446,347.595,988.517,415.05,1020.195,472.807C1052.896,532.429,1120.602,562.873,1188.59,561.53" fill="rgba(203, 206, 254, 1)" class="triangle-float2"></path><path d="M1020.173,166.905C1064.53,163.768,1090.083,120.003,1109.08,79.797C1124.842,46.439,1127.999,8.808,1110.123,-23.466C1091.666,-56.789,1058.235,-79.172,1020.173,-80.716C979.22,-82.377,938.979,-65.672,916.63,-31.314C892.113,6.378,885.623,54.275,906.441,94.129C928.776,136.886,972.054,170.308,1020.173,166.905" fill="rgba(203, 206, 254, 1)" class="triangle-float2"></path></g><defs><mask id="SvgjsMask1043"><rect width="1500" height="700" fill="#ffffff"></rect></mask></defs></svg>